<mxfile host="app.diagrams.net" modified="2024-05-22T16:16:54.956Z" agent="Mozilla/5.0 (X11; Linux x86_64; rv:125.0) Gecko/20100101 Firefox/125.0" etag="RltmVIZ2EC9AYIHkXSVN" version="24.4.6" type="google">
  <diagram name="Page-1" id="OKW2vZuUyCLfSEZPetRM">
    <mxGraphModel grid="1" page="0" gridSize="10" guides="1" tooltips="1" connect="1" arrows="1" fold="1" pageScale="1" pageWidth="850" pageHeight="1100" math="0" shadow="0">
      <root>
        <mxCell id="0" />
        <mxCell id="1" parent="0" />
        <mxCell id="JS7riM0ZTtFmvcEDUlsF-1" value="" style="rounded=0;whiteSpace=wrap;html=1;fillColor=none;dashed=1;strokeWidth=1;fontColor=#333333;strokeColor=#666666;" vertex="1" parent="1">
          <mxGeometry x="1670" y="-75" width="330" height="355" as="geometry" />
        </mxCell>
        <mxCell id="JS7riM0ZTtFmvcEDUlsF-2" value="" style="ellipse;html=1;shape=endState;fillColor=#000000;strokeColor=#ff0000;" vertex="1" parent="1">
          <mxGeometry x="1830" y="230" width="30" height="30" as="geometry" />
        </mxCell>
        <mxCell id="JS7riM0ZTtFmvcEDUlsF-3" value="" style="ellipse;html=1;shape=startState;fillColor=#000000;strokeColor=#ff0000;" vertex="1" parent="1">
          <mxGeometry x="1830" y="-35" width="30" height="30" as="geometry" />
        </mxCell>
        <mxCell id="JS7riM0ZTtFmvcEDUlsF-4" value="" style="edgeStyle=orthogonalEdgeStyle;html=1;verticalAlign=bottom;endArrow=open;endSize=8;strokeColor=#ff0000;rounded=0;" edge="1" parent="1" source="JS7riM0ZTtFmvcEDUlsF-3" target="JS7riM0ZTtFmvcEDUlsF-5">
          <mxGeometry relative="1" as="geometry">
            <mxPoint x="1845" y="35" as="targetPoint" />
          </mxGeometry>
        </mxCell>
        <mxCell id="JS7riM0ZTtFmvcEDUlsF-5" value="Run checkout@v2" style="rounded=1;whiteSpace=wrap;html=1;arcSize=40;fontColor=#000000;fillColor=#ffffc0;strokeColor=#ff0000;" vertex="1" parent="1">
          <mxGeometry x="1785" y="25" width="120" height="40" as="geometry" />
        </mxCell>
        <mxCell id="JS7riM0ZTtFmvcEDUlsF-6" value="Pull request to main" style="text;html=1;align=center;verticalAlign=middle;resizable=0;points=[];autosize=1;strokeColor=none;fillColor=none;" vertex="1" parent="1">
          <mxGeometry x="1700" y="-35" width="130" height="30" as="geometry" />
        </mxCell>
        <mxCell id="JS7riM0ZTtFmvcEDUlsF-7" value="Set up Docker Buildx" style="rounded=1;whiteSpace=wrap;html=1;arcSize=40;fontColor=#000000;fillColor=#ffffc0;strokeColor=#ff0000;" vertex="1" parent="1">
          <mxGeometry x="1785" y="95" width="120" height="40" as="geometry" />
        </mxCell>
        <mxCell id="JS7riM0ZTtFmvcEDUlsF-8" value="" style="edgeStyle=orthogonalEdgeStyle;html=1;align=left;verticalAlign=top;endArrow=open;endSize=8;strokeColor=#ff0000;rounded=0;" edge="1" parent="1" source="JS7riM0ZTtFmvcEDUlsF-5" target="JS7riM0ZTtFmvcEDUlsF-7">
          <mxGeometry x="-1" relative="1" as="geometry">
            <mxPoint x="1860" y="35" as="targetPoint" />
            <mxPoint x="1860" y="-35" as="sourcePoint" />
          </mxGeometry>
        </mxCell>
        <mxCell id="JS7riM0ZTtFmvcEDUlsF-9" value="Test minix with docker minixtestimage" style="rounded=1;whiteSpace=wrap;html=1;arcSize=40;fontColor=#000000;fillColor=#ffffc0;strokeColor=#ff0000;" vertex="1" parent="1">
          <mxGeometry x="1781" y="165" width="128" height="40" as="geometry" />
        </mxCell>
        <mxCell id="JS7riM0ZTtFmvcEDUlsF-15" value="" style="edgeStyle=orthogonalEdgeStyle;html=1;align=left;verticalAlign=top;endArrow=open;endSize=8;strokeColor=#ff0000;rounded=0;entryX=0.5;entryY=0;entryDx=0;entryDy=0;" edge="1" parent="1" source="JS7riM0ZTtFmvcEDUlsF-9" target="JS7riM0ZTtFmvcEDUlsF-2">
          <mxGeometry x="-1" relative="1" as="geometry">
            <mxPoint x="1845" y="235" as="targetPoint" />
            <mxPoint x="1854" y="285" as="sourcePoint" />
          </mxGeometry>
        </mxCell>
        <mxCell id="JS7riM0ZTtFmvcEDUlsF-16" value="" style="edgeStyle=orthogonalEdgeStyle;html=1;align=left;verticalAlign=top;endArrow=open;endSize=8;strokeColor=#ff0000;rounded=0;" edge="1" parent="1" source="JS7riM0ZTtFmvcEDUlsF-7" target="JS7riM0ZTtFmvcEDUlsF-9">
          <mxGeometry x="-1" relative="1" as="geometry">
            <mxPoint x="1854" y="255" as="targetPoint" />
            <mxPoint x="1854" y="215" as="sourcePoint" />
          </mxGeometry>
        </mxCell>
        <mxCell id="JS7riM0ZTtFmvcEDUlsF-18" value="&lt;font style=&quot;font-size: 16px;&quot;&gt;Test Mini-X Workflow&lt;/font&gt;" style="text;html=1;strokeColor=none;fillColor=none;align=left;verticalAlign=middle;whiteSpace=wrap;rounded=0;fontStyle=1" vertex="1" parent="1">
          <mxGeometry x="1700" y="-75" width="230" height="40" as="geometry" />
        </mxCell>
        <mxCell id="JS7riM0ZTtFmvcEDUlsF-19" value="" style="rounded=0;whiteSpace=wrap;html=1;fillColor=none;dashed=1;strokeWidth=1;fontColor=#333333;strokeColor=#666666;" vertex="1" parent="1">
          <mxGeometry x="1310" y="-75" width="330" height="855" as="geometry" />
        </mxCell>
        <mxCell id="JS7riM0ZTtFmvcEDUlsF-21" value="" style="ellipse;html=1;shape=startState;fillColor=#000000;strokeColor=#ff0000;" vertex="1" parent="1">
          <mxGeometry x="1465" y="20" width="30" height="30" as="geometry" />
        </mxCell>
        <mxCell id="JS7riM0ZTtFmvcEDUlsF-22" value="" style="edgeStyle=orthogonalEdgeStyle;html=1;verticalAlign=bottom;endArrow=open;endSize=8;strokeColor=#ff0000;rounded=0;" edge="1" parent="1" source="JS7riM0ZTtFmvcEDUlsF-21" target="JS7riM0ZTtFmvcEDUlsF-23">
          <mxGeometry relative="1" as="geometry">
            <mxPoint x="1480" y="90" as="targetPoint" />
          </mxGeometry>
        </mxCell>
        <mxCell id="JS7riM0ZTtFmvcEDUlsF-23" value="Run checkout@v2" style="rounded=1;whiteSpace=wrap;html=1;arcSize=40;fontColor=#000000;fillColor=#ffffc0;strokeColor=#ff0000;" vertex="1" parent="1">
          <mxGeometry x="1420" y="98" width="120" height="40" as="geometry" />
        </mxCell>
        <mxCell id="JS7riM0ZTtFmvcEDUlsF-24" value="Push to main" style="text;html=1;align=center;verticalAlign=middle;resizable=0;points=[];autosize=1;strokeColor=none;fillColor=none;" vertex="1" parent="1">
          <mxGeometry x="1370" y="20" width="90" height="30" as="geometry" />
        </mxCell>
        <mxCell id="JS7riM0ZTtFmvcEDUlsF-25" value="Create .env file with login information" style="rounded=1;whiteSpace=wrap;html=1;arcSize=40;fontColor=#000000;fillColor=#ffffc0;strokeColor=#ff0000;" vertex="1" parent="1">
          <mxGeometry x="1420" y="178.5" width="120" height="40" as="geometry" />
        </mxCell>
        <mxCell id="JS7riM0ZTtFmvcEDUlsF-26" value="" style="edgeStyle=orthogonalEdgeStyle;html=1;align=left;verticalAlign=top;endArrow=open;endSize=8;strokeColor=#ff0000;rounded=0;" edge="1" parent="1" source="JS7riM0ZTtFmvcEDUlsF-23" target="JS7riM0ZTtFmvcEDUlsF-25">
          <mxGeometry x="-1" relative="1" as="geometry">
            <mxPoint x="1495" y="90" as="targetPoint" />
            <mxPoint x="1495" y="20" as="sourcePoint" />
          </mxGeometry>
        </mxCell>
        <mxCell id="JS7riM0ZTtFmvcEDUlsF-30" value="&lt;font style=&quot;font-size: 16px;&quot;&gt;Continuous Deployment Workflow&lt;/font&gt;" style="text;html=1;strokeColor=none;fillColor=none;align=left;verticalAlign=middle;whiteSpace=wrap;rounded=0;fontStyle=1" vertex="1" parent="1">
          <mxGeometry x="1340" y="-75" width="310" height="40" as="geometry" />
        </mxCell>
        <mxCell id="JS7riM0ZTtFmvcEDUlsF-36" value="" style="ellipse;html=1;shape=endState;fillColor=#000000;strokeColor=#ff0000;" vertex="1" parent="1">
          <mxGeometry x="1465" y="672.9999999999999" width="30" height="30" as="geometry" />
        </mxCell>
        <mxCell id="JS7riM0ZTtFmvcEDUlsF-37" value="Pull the image and deploy it with swarm" style="rounded=1;whiteSpace=wrap;html=1;arcSize=40;fontColor=#000000;fillColor=#ffffc0;strokeColor=#ff0000;" vertex="1" parent="1">
          <mxGeometry x="1420" y="593.9999999999999" width="120" height="40" as="geometry" />
        </mxCell>
        <mxCell id="JS7riM0ZTtFmvcEDUlsF-38" value="" style="edgeStyle=orthogonalEdgeStyle;html=1;align=left;verticalAlign=top;endArrow=open;endSize=8;strokeColor=#ff0000;rounded=0;entryX=0.5;entryY=0;entryDx=0;entryDy=0;" edge="1" parent="1" source="JS7riM0ZTtFmvcEDUlsF-37" target="JS7riM0ZTtFmvcEDUlsF-36">
          <mxGeometry x="-1" relative="1" as="geometry">
            <mxPoint x="1480" y="687.7499999999999" as="targetPoint" />
            <mxPoint x="1489" y="737.7499999999999" as="sourcePoint" />
          </mxGeometry>
        </mxCell>
        <mxCell id="JS7riM0ZTtFmvcEDUlsF-39" value="Create docker image and push it to docker hub" style="rounded=1;whiteSpace=wrap;html=1;arcSize=40;fontColor=#000000;fillColor=#ffffc0;strokeColor=#ff0000;" vertex="1" parent="1">
          <mxGeometry x="1412.5" y="416.13" width="135" height="50" as="geometry" />
        </mxCell>
        <mxCell id="JS7riM0ZTtFmvcEDUlsF-42" value="SSH into the manager node and update docker-compose" style="rounded=1;whiteSpace=wrap;html=1;arcSize=40;fontColor=#000000;fillColor=#ffffc0;strokeColor=#ff0000;" vertex="1" parent="1">
          <mxGeometry x="1412.5" y="505" width="135" height="50" as="geometry" />
        </mxCell>
        <mxCell id="JS7riM0ZTtFmvcEDUlsF-45" value="Login to docker hub" style="rounded=1;whiteSpace=wrap;html=1;arcSize=40;fontColor=#000000;fillColor=#ffffc0;strokeColor=#ff0000;" vertex="1" parent="1">
          <mxGeometry x="1420" y="337" width="120" height="40" as="geometry" />
        </mxCell>
        <mxCell id="JS7riM0ZTtFmvcEDUlsF-47" value="" style="rounded=0;whiteSpace=wrap;html=1;fillColor=none;dashed=1;strokeWidth=1;fontColor=#333333;strokeColor=#666666;" vertex="1" parent="1">
          <mxGeometry x="950" y="396.13" width="330" height="383.87" as="geometry" />
        </mxCell>
        <mxCell id="JS7riM0ZTtFmvcEDUlsF-48" value="" style="ellipse;html=1;shape=endState;fillColor=#000000;strokeColor=#ff0000;" vertex="1" parent="1">
          <mxGeometry x="1110" y="743.13" width="30" height="30" as="geometry" />
        </mxCell>
        <mxCell id="JS7riM0ZTtFmvcEDUlsF-49" value="" style="ellipse;html=1;shape=startState;fillColor=#000000;strokeColor=#ff0000;" vertex="1" parent="1">
          <mxGeometry x="1110" y="443.13" width="30" height="30" as="geometry" />
        </mxCell>
        <mxCell id="JS7riM0ZTtFmvcEDUlsF-50" value="" style="edgeStyle=orthogonalEdgeStyle;html=1;verticalAlign=bottom;endArrow=open;endSize=8;strokeColor=#ff0000;rounded=0;" edge="1" parent="1" source="JS7riM0ZTtFmvcEDUlsF-49" target="JS7riM0ZTtFmvcEDUlsF-51">
          <mxGeometry relative="1" as="geometry">
            <mxPoint x="1125" y="513.13" as="targetPoint" />
          </mxGeometry>
        </mxCell>
        <mxCell id="JS7riM0ZTtFmvcEDUlsF-51" value="Run checkout@v3" style="rounded=1;whiteSpace=wrap;html=1;arcSize=40;fontColor=#000000;fillColor=#ffffc0;strokeColor=#ff0000;" vertex="1" parent="1">
          <mxGeometry x="1065" y="503.13" width="120" height="40" as="geometry" />
        </mxCell>
        <mxCell id="JS7riM0ZTtFmvcEDUlsF-52" value="Push to any branch" style="text;html=1;align=center;verticalAlign=middle;resizable=0;points=[];autosize=1;strokeColor=none;fillColor=none;" vertex="1" parent="1">
          <mxGeometry x="980" y="443.13" width="130" height="30" as="geometry" />
        </mxCell>
        <mxCell id="JS7riM0ZTtFmvcEDUlsF-53" value="Run markdown-to-pdf@v1 to generate PDF" style="rounded=1;whiteSpace=wrap;html=1;arcSize=40;fontColor=#000000;fillColor=#ffffc0;strokeColor=#ff0000;" vertex="1" parent="1">
          <mxGeometry x="1057.5" y="578.13" width="135" height="50" as="geometry" />
        </mxCell>
        <mxCell id="JS7riM0ZTtFmvcEDUlsF-54" value="" style="edgeStyle=orthogonalEdgeStyle;html=1;align=left;verticalAlign=top;endArrow=open;endSize=8;strokeColor=#ff0000;rounded=0;" edge="1" parent="1" source="JS7riM0ZTtFmvcEDUlsF-51" target="JS7riM0ZTtFmvcEDUlsF-53">
          <mxGeometry x="-1" relative="1" as="geometry">
            <mxPoint x="1140" y="513.13" as="targetPoint" />
            <mxPoint x="1140" y="443.13" as="sourcePoint" />
          </mxGeometry>
        </mxCell>
        <mxCell id="JS7riM0ZTtFmvcEDUlsF-55" value="Run git-auto-commit-action@v5 to commit new PDF" style="rounded=1;whiteSpace=wrap;html=1;arcSize=40;fontColor=#000000;fillColor=#ffffc0;strokeColor=#ff0000;" vertex="1" parent="1">
          <mxGeometry x="1057.5" y="663.13" width="135" height="50" as="geometry" />
        </mxCell>
        <mxCell id="JS7riM0ZTtFmvcEDUlsF-56" value="" style="edgeStyle=orthogonalEdgeStyle;html=1;align=left;verticalAlign=top;endArrow=open;endSize=8;strokeColor=#ff0000;rounded=0;entryX=0.5;entryY=0;entryDx=0;entryDy=0;" edge="1" parent="1" source="JS7riM0ZTtFmvcEDUlsF-55" target="JS7riM0ZTtFmvcEDUlsF-48">
          <mxGeometry x="-1" relative="1" as="geometry">
            <mxPoint x="1125" y="713.13" as="targetPoint" />
            <mxPoint x="1134" y="763.13" as="sourcePoint" />
          </mxGeometry>
        </mxCell>
        <mxCell id="JS7riM0ZTtFmvcEDUlsF-57" value="" style="edgeStyle=orthogonalEdgeStyle;html=1;align=left;verticalAlign=top;endArrow=open;endSize=8;strokeColor=#ff0000;rounded=0;" edge="1" parent="1" source="JS7riM0ZTtFmvcEDUlsF-53" target="JS7riM0ZTtFmvcEDUlsF-55">
          <mxGeometry x="-1" relative="1" as="geometry">
            <mxPoint x="1134" y="733.13" as="targetPoint" />
            <mxPoint x="1134" y="693.13" as="sourcePoint" />
          </mxGeometry>
        </mxCell>
        <mxCell id="JS7riM0ZTtFmvcEDUlsF-58" value="&lt;font style=&quot;font-size: 16px;&quot;&gt;Generate Report Workflow&lt;/font&gt;" style="text;html=1;strokeColor=none;fillColor=none;align=left;verticalAlign=middle;whiteSpace=wrap;rounded=0;fontStyle=1" vertex="1" parent="1">
          <mxGeometry x="970" y="402.5" width="270" height="40" as="geometry" />
        </mxCell>
        <mxCell id="JS7riM0ZTtFmvcEDUlsF-59" value="" style="rounded=0;whiteSpace=wrap;html=1;fillColor=none;dashed=1;strokeWidth=1;fontColor=#333333;strokeColor=#666666;" vertex="1" parent="1">
          <mxGeometry x="1670" y="292.13" width="330" height="487.87" as="geometry" />
        </mxCell>
        <mxCell id="JS7riM0ZTtFmvcEDUlsF-60" value="" style="ellipse;html=1;shape=endState;fillColor=#000000;strokeColor=#ff0000;" vertex="1" parent="1">
          <mxGeometry x="1830" y="736.13" width="30" height="30" as="geometry" />
        </mxCell>
        <mxCell id="JS7riM0ZTtFmvcEDUlsF-61" value="" style="ellipse;html=1;shape=startState;fillColor=#000000;strokeColor=#ff0000;" vertex="1" parent="1">
          <mxGeometry x="1830" y="329.88" width="30" height="30" as="geometry" />
        </mxCell>
        <mxCell id="JS7riM0ZTtFmvcEDUlsF-62" value="" style="edgeStyle=orthogonalEdgeStyle;html=1;verticalAlign=bottom;endArrow=open;endSize=8;strokeColor=#ff0000;rounded=0;" edge="1" parent="1" source="JS7riM0ZTtFmvcEDUlsF-61" target="JS7riM0ZTtFmvcEDUlsF-63">
          <mxGeometry relative="1" as="geometry">
            <mxPoint x="1845" y="396.13" as="targetPoint" />
          </mxGeometry>
        </mxCell>
        <mxCell id="JS7riM0ZTtFmvcEDUlsF-63" value="Run checkout@v3" style="rounded=1;whiteSpace=wrap;html=1;arcSize=40;fontColor=#000000;fillColor=#ffffc0;strokeColor=#ff0000;" vertex="1" parent="1">
          <mxGeometry x="1785" y="386.13" width="120" height="40" as="geometry" />
        </mxCell>
        <mxCell id="JS7riM0ZTtFmvcEDUlsF-64" value="Push to main with tag" style="text;html=1;align=center;verticalAlign=middle;resizable=0;points=[];autosize=1;strokeColor=none;fillColor=none;" vertex="1" parent="1">
          <mxGeometry x="1695" y="326.13" width="140" height="30" as="geometry" />
        </mxCell>
        <mxCell id="JS7riM0ZTtFmvcEDUlsF-65" value="Set up Rust" style="rounded=1;whiteSpace=wrap;html=1;arcSize=40;fontColor=#000000;fillColor=#ffffc0;strokeColor=#ff0000;" vertex="1" parent="1">
          <mxGeometry x="1785" y="456.13" width="120" height="40" as="geometry" />
        </mxCell>
        <mxCell id="JS7riM0ZTtFmvcEDUlsF-66" value="" style="edgeStyle=orthogonalEdgeStyle;html=1;align=left;verticalAlign=top;endArrow=open;endSize=8;strokeColor=#ff0000;rounded=0;" edge="1" parent="1" source="JS7riM0ZTtFmvcEDUlsF-63" target="JS7riM0ZTtFmvcEDUlsF-65">
          <mxGeometry x="-1" relative="1" as="geometry">
            <mxPoint x="1860" y="396.13" as="targetPoint" />
            <mxPoint x="1860" y="326.13" as="sourcePoint" />
          </mxGeometry>
        </mxCell>
        <mxCell id="JS7riM0ZTtFmvcEDUlsF-70" value="&lt;font style=&quot;font-size: 16px;&quot;&gt;Publish Workflow&lt;/font&gt;" style="text;html=1;strokeColor=none;fillColor=none;align=left;verticalAlign=middle;whiteSpace=wrap;rounded=0;fontStyle=1" vertex="1" parent="1">
          <mxGeometry x="1700" y="292.13" width="190" height="40" as="geometry" />
        </mxCell>
        <mxCell id="JS7riM0ZTtFmvcEDUlsF-74" value="Build our application" style="rounded=1;whiteSpace=wrap;html=1;arcSize=40;fontColor=#000000;fillColor=#ffffc0;strokeColor=#ff0000;" vertex="1" parent="1">
          <mxGeometry x="1785" y="526.13" width="120" height="40" as="geometry" />
        </mxCell>
        <mxCell id="JS7riM0ZTtFmvcEDUlsF-76" value="" style="edgeStyle=orthogonalEdgeStyle;html=1;align=left;verticalAlign=top;endArrow=open;endSize=8;strokeColor=#ff0000;rounded=0;" edge="1" parent="1">
          <mxGeometry x="-1" relative="1" as="geometry">
            <mxPoint x="1844.92" y="526.13" as="targetPoint" />
            <mxPoint x="1844.92" y="496.13" as="sourcePoint" />
          </mxGeometry>
        </mxCell>
        <mxCell id="JS7riM0ZTtFmvcEDUlsF-77" value="Publish Release" style="rounded=1;whiteSpace=wrap;html=1;arcSize=40;fontColor=#000000;fillColor=#ffffc0;strokeColor=#ff0000;" vertex="1" parent="1">
          <mxGeometry x="1785" y="666.13" width="120" height="40" as="geometry" />
        </mxCell>
        <mxCell id="JS7riM0ZTtFmvcEDUlsF-78" value="" style="edgeStyle=orthogonalEdgeStyle;html=1;align=left;verticalAlign=top;endArrow=open;endSize=8;strokeColor=#ff0000;rounded=0;" edge="1" parent="1">
          <mxGeometry x="-1" relative="1" as="geometry">
            <mxPoint x="1844.92" y="596.13" as="targetPoint" />
            <mxPoint x="1844.92" y="566.13" as="sourcePoint" />
          </mxGeometry>
        </mxCell>
        <mxCell id="JS7riM0ZTtFmvcEDUlsF-79" value="" style="edgeStyle=orthogonalEdgeStyle;html=1;align=left;verticalAlign=top;endArrow=open;endSize=8;strokeColor=#ff0000;rounded=0;" edge="1" parent="1">
          <mxGeometry x="-1" relative="1" as="geometry">
            <mxPoint x="1844.88" y="736.13" as="targetPoint" />
            <mxPoint x="1844.88" y="706.13" as="sourcePoint" />
          </mxGeometry>
        </mxCell>
        <mxCell id="JS7riM0ZTtFmvcEDUlsF-80" value="Zip files" style="rounded=1;whiteSpace=wrap;html=1;arcSize=40;fontColor=#000000;fillColor=#ffffc0;strokeColor=#ff0000;" vertex="1" parent="1">
          <mxGeometry x="1787.5" y="596.13" width="120" height="40" as="geometry" />
        </mxCell>
        <mxCell id="JS7riM0ZTtFmvcEDUlsF-81" value="" style="edgeStyle=orthogonalEdgeStyle;html=1;align=left;verticalAlign=top;endArrow=open;endSize=8;strokeColor=#ff0000;rounded=0;" edge="1" parent="1">
          <mxGeometry x="-1" relative="1" as="geometry">
            <mxPoint x="1847.42" y="666.13" as="targetPoint" />
            <mxPoint x="1847.42" y="636.13" as="sourcePoint" />
          </mxGeometry>
        </mxCell>
        <mxCell id="JS7riM0ZTtFmvcEDUlsF-82" value="" style="rounded=0;whiteSpace=wrap;html=1;fillColor=none;dashed=1;strokeWidth=1;fontColor=#333333;strokeColor=#666666;" vertex="1" parent="1">
          <mxGeometry x="950" y="-75" width="330" height="455" as="geometry" />
        </mxCell>
        <mxCell id="JS7riM0ZTtFmvcEDUlsF-83" value="" style="ellipse;html=1;shape=endState;fillColor=#000000;strokeColor=#ff0000;" vertex="1" parent="1">
          <mxGeometry x="1110" y="323" width="30" height="30" as="geometry" />
        </mxCell>
        <mxCell id="JS7riM0ZTtFmvcEDUlsF-84" value="" style="ellipse;html=1;shape=startState;fillColor=#000000;strokeColor=#ff0000;" vertex="1" parent="1">
          <mxGeometry x="1110" y="-8" width="30" height="30" as="geometry" />
        </mxCell>
        <mxCell id="JS7riM0ZTtFmvcEDUlsF-85" value="" style="edgeStyle=orthogonalEdgeStyle;html=1;verticalAlign=bottom;endArrow=open;endSize=8;strokeColor=#ff0000;rounded=0;" edge="1" parent="1" source="JS7riM0ZTtFmvcEDUlsF-84" target="JS7riM0ZTtFmvcEDUlsF-86">
          <mxGeometry relative="1" as="geometry">
            <mxPoint x="1125" y="62" as="targetPoint" />
          </mxGeometry>
        </mxCell>
        <mxCell id="JS7riM0ZTtFmvcEDUlsF-86" value="&lt;div&gt;Run checkout@v2&lt;/div&gt;" style="rounded=1;whiteSpace=wrap;html=1;arcSize=40;fontColor=#000000;fillColor=#ffffc0;strokeColor=#ff0000;" vertex="1" parent="1">
          <mxGeometry x="1065" y="52" width="120" height="40" as="geometry" />
        </mxCell>
        <mxCell id="JS7riM0ZTtFmvcEDUlsF-87" value="&lt;div&gt;Push or pull request&amp;nbsp;&lt;/div&gt;&lt;div&gt;to main&lt;/div&gt;" style="text;html=1;align=center;verticalAlign=middle;resizable=0;points=[];autosize=1;strokeColor=none;fillColor=none;" vertex="1" parent="1">
          <mxGeometry x="980" y="-8" width="130" height="40" as="geometry" />
        </mxCell>
        <mxCell id="JS7riM0ZTtFmvcEDUlsF-88" value="Set up Rust" style="rounded=1;whiteSpace=wrap;html=1;arcSize=40;fontColor=#000000;fillColor=#ffffc0;strokeColor=#ff0000;" vertex="1" parent="1">
          <mxGeometry x="1065" y="120" width="120" height="40" as="geometry" />
        </mxCell>
        <mxCell id="JS7riM0ZTtFmvcEDUlsF-89" value="" style="edgeStyle=orthogonalEdgeStyle;html=1;align=left;verticalAlign=top;endArrow=open;endSize=8;strokeColor=#ff0000;rounded=0;" edge="1" parent="1" source="JS7riM0ZTtFmvcEDUlsF-86">
          <mxGeometry x="-1" relative="1" as="geometry">
            <mxPoint x="1125" y="120" as="targetPoint" />
            <mxPoint x="1140" y="-8" as="sourcePoint" />
          </mxGeometry>
        </mxCell>
        <mxCell id="JS7riM0ZTtFmvcEDUlsF-90" value="&lt;font style=&quot;font-size: 16px;&quot;&gt;Rust Format Check Workflow&lt;/font&gt;" style="text;html=1;strokeColor=none;fillColor=none;align=left;verticalAlign=middle;whiteSpace=wrap;rounded=0;fontStyle=1" vertex="1" parent="1">
          <mxGeometry x="980" y="-70" width="240" height="40" as="geometry" />
        </mxCell>
        <mxCell id="JS7riM0ZTtFmvcEDUlsF-91" value="Run cargo fmt" style="rounded=1;whiteSpace=wrap;html=1;arcSize=40;fontColor=#000000;fillColor=#ffffc0;strokeColor=#ff0000;" vertex="1" parent="1">
          <mxGeometry x="1065" y="188" width="120" height="40" as="geometry" />
        </mxCell>
        <mxCell id="JS7riM0ZTtFmvcEDUlsF-100" value="Set up Docker Buildx" style="rounded=1;whiteSpace=wrap;html=1;arcSize=40;fontColor=#000000;fillColor=#ffffc0;strokeColor=#ff0000;" vertex="1" parent="1">
          <mxGeometry x="1420" y="258" width="120" height="40" as="geometry" />
        </mxCell>
        <mxCell id="JS7riM0ZTtFmvcEDUlsF-101" value="" style="edgeStyle=orthogonalEdgeStyle;html=1;align=left;verticalAlign=top;endArrow=open;endSize=8;strokeColor=#ff0000;rounded=0;entryX=0.5;entryY=0;entryDx=0;entryDy=0;" edge="1" parent="1">
          <mxGeometry x="-1" relative="1" as="geometry">
            <mxPoint x="1479.9199999999998" y="594" as="targetPoint" />
            <mxPoint x="1479.9199999999998" y="555" as="sourcePoint" />
          </mxGeometry>
        </mxCell>
        <mxCell id="JS7riM0ZTtFmvcEDUlsF-102" value="" style="edgeStyle=orthogonalEdgeStyle;html=1;align=left;verticalAlign=top;endArrow=open;endSize=8;strokeColor=#ff0000;rounded=0;entryX=0.5;entryY=0;entryDx=0;entryDy=0;" edge="1" parent="1">
          <mxGeometry x="-1" relative="1" as="geometry">
            <mxPoint x="1479.9199999999998" y="505" as="targetPoint" />
            <mxPoint x="1479.9199999999998" y="466" as="sourcePoint" />
          </mxGeometry>
        </mxCell>
        <mxCell id="JS7riM0ZTtFmvcEDUlsF-103" value="" style="edgeStyle=orthogonalEdgeStyle;html=1;align=left;verticalAlign=top;endArrow=open;endSize=8;strokeColor=#ff0000;rounded=0;entryX=0.5;entryY=0;entryDx=0;entryDy=0;" edge="1" parent="1">
          <mxGeometry x="-1" relative="1" as="geometry">
            <mxPoint x="1479.9199999999998" y="417" as="targetPoint" />
            <mxPoint x="1479.9199999999998" y="378" as="sourcePoint" />
          </mxGeometry>
        </mxCell>
        <mxCell id="JS7riM0ZTtFmvcEDUlsF-104" value="" style="edgeStyle=orthogonalEdgeStyle;html=1;align=left;verticalAlign=top;endArrow=open;endSize=8;strokeColor=#ff0000;rounded=0;entryX=0.5;entryY=0;entryDx=0;entryDy=0;" edge="1" parent="1">
          <mxGeometry x="-1" relative="1" as="geometry">
            <mxPoint x="1479.9199999999998" y="337" as="targetPoint" />
            <mxPoint x="1479.9199999999998" y="298" as="sourcePoint" />
          </mxGeometry>
        </mxCell>
        <mxCell id="JS7riM0ZTtFmvcEDUlsF-105" value="" style="edgeStyle=orthogonalEdgeStyle;html=1;align=left;verticalAlign=top;endArrow=open;endSize=8;strokeColor=#ff0000;rounded=0;entryX=0.5;entryY=0;entryDx=0;entryDy=0;" edge="1" parent="1">
          <mxGeometry x="-1" relative="1" as="geometry">
            <mxPoint x="1479.9199999999998" y="258" as="targetPoint" />
            <mxPoint x="1479.9199999999998" y="219" as="sourcePoint" />
          </mxGeometry>
        </mxCell>
        <mxCell id="V-hiODqIxSdYPmzKLlWV-2" value="Run cargo clippy" style="rounded=1;whiteSpace=wrap;html=1;arcSize=40;fontColor=#000000;fillColor=#ffffc0;strokeColor=#ff0000;" vertex="1" parent="1">
          <mxGeometry x="1065" y="255" width="120" height="40" as="geometry" />
        </mxCell>
        <mxCell id="JS7riM0ZTtFmvcEDUlsF-108" value="" style="edgeStyle=orthogonalEdgeStyle;html=1;align=left;verticalAlign=top;endArrow=open;endSize=8;strokeColor=#ff0000;rounded=0;" edge="1" parent="1">
          <mxGeometry x="-1" relative="1" as="geometry">
            <mxPoint x="1124.86" y="188" as="targetPoint" />
            <mxPoint x="1124.86" y="160" as="sourcePoint" />
          </mxGeometry>
        </mxCell>
        <mxCell id="JS7riM0ZTtFmvcEDUlsF-109" value="" style="edgeStyle=orthogonalEdgeStyle;html=1;align=left;verticalAlign=top;endArrow=open;endSize=8;strokeColor=#ff0000;rounded=0;" edge="1" parent="1">
          <mxGeometry x="-1" relative="1" as="geometry">
            <mxPoint x="1124.86" y="255" as="targetPoint" />
            <mxPoint x="1124.86" y="227" as="sourcePoint" />
          </mxGeometry>
        </mxCell>
        <mxCell id="JS7riM0ZTtFmvcEDUlsF-110" value="" style="edgeStyle=orthogonalEdgeStyle;html=1;align=left;verticalAlign=top;endArrow=open;endSize=8;strokeColor=#ff0000;rounded=0;" edge="1" parent="1">
          <mxGeometry x="-1" relative="1" as="geometry">
            <mxPoint x="1124.86" y="323" as="targetPoint" />
            <mxPoint x="1124.86" y="295" as="sourcePoint" />
          </mxGeometry>
        </mxCell>
      </root>
    </mxGraphModel>
  </diagram>
</mxfile>
